<svg xmlns="http://www.w3.org/2000/svg" viewBox="0 0 32 40" x="0px" y="0px"><g><path d="M25,14H23a5.006,5.006,0,0,1-5-5V7a5.006,5.006,0,0,1,5-5h2a5.006,5.006,0,0,1,5,5V9A5.006,5.006,0,0,1,25,14ZM23,4a3,3,0,0,0-3,3V9a3,3,0,0,0,3,3h2a3,3,0,0,0,3-3V7a3,3,0,0,0-3-3Z"/><path d="M9,2H7A5.006,5.006,0,0,0,2,7V9a5.006,5.006,0,0,0,5,5H9a5.006,5.006,0,0,0,5-5V7A5.006,5.006,0,0,0,9,2Zm3,7a3,3,0,0,1-3,3H7A3,3,0,0,1,4,9V7A3,3,0,0,1,7,4H9a3,3,0,0,1,3,3Zm13,9H23a5.006,5.006,0,0,0-5,5v2a5.006,5.006,0,0,0,5,5h2a5.006,5.006,0,0,0,5-5V23A5.006,5.006,0,0,0,25,18Zm3,7a3,3,0,0,1-3,3H23a3,3,0,0,1-3-3V23a3,3,0,0,1,3-3h2a3,3,0,0,1,3,3ZM9,18H7a5.006,5.006,0,0,0-5,5v2a5.006,5.006,0,0,0,5,5H9a5.006,5.006,0,0,0,5-5V23A5.006,5.006,0,0,0,9,18Zm3,7a3,3,0,0,1-3,3H7a3,3,0,0,1-3-3V23a3,3,0,0,1,3-3H9a3,3,0,0,1,3,3Z"/><rect width="32" height="32" fill="none"/></g><text x="0" y="47" fill="#000000" font-size="5px" font-weight="bold" font-family="'Helvetica Neue', Helvetica, Arial-Unicode, Arial, Sans-serif">Created by Iconzilla.id</text><text x="0" y="52" fill="#000000" font-size="5px" font-weight="bold" font-family="'Helvetica Neue', Helvetica, Arial-Unicode, Arial, Sans-serif">from the Noun Project</text></svg>