<svg xmlns="http://www.w3.org/2000/svg" viewBox="0 0 32 40" x="0px" y="0px"><g><path d="M19,7a3,3,0,0,0-6,0H11A5,5,0,0,1,21,7ZM15,24h2V16H15Zm4,0h2V16H19Zm-8,0h2V16H11Z"/><path d="M28,9a3,3,0,0,0-3-3H7a2.993,2.993,0,0,0-1,5.816V25a5.006,5.006,0,0,0,5,5H21a5.006,5.006,0,0,0,5-5V11.816A3,3,0,0,0,28,9ZM24,25a3,3,0,0,1-3,3H11a3,3,0,0,1-3-3V12H24Zm1-15H7A1,1,0,0,1,7,8H25a1,1,0,0,1,0,2Z"/><rect width="32" height="32" fill="none"/></g><text x="0" y="47" fill="#000000" font-size="5px" font-weight="bold" font-family="'Helvetica Neue', Helvetica, Arial-Unicode, Arial, Sans-serif">Created by Iconzilla.id</text><text x="0" y="52" fill="#000000" font-size="5px" font-weight="bold" font-family="'Helvetica Neue', Helvetica, Arial-Unicode, Arial, Sans-serif">from the Noun Project</text></svg>