<svg xmlns="http://www.w3.org/2000/svg" viewBox="0 0 32 40" x="0px" y="0px"><g><path d="M16,30A14,14,0,1,1,27.382,7.847a1,1,0,0,1-.105,1.29l-.569.57-.8-.8-.149.107A12,12,0,1,0,28,16h2A14.015,14.015,0,0,1,16,30Z"/><path d="M14,22a1,1,0,0,1-.707-.293l-6-6,1.414-1.414L14,19.586,25.293,8.293l1.414,1.414-12,12A1,1,0,0,1,14,22Z"/><rect width="32" height="32" fill="none"/></g><text x="0" y="47" fill="#000000" font-size="5px" font-weight="bold" font-family="'Helvetica Neue', Helvetica, Arial-Unicode, Arial, Sans-serif">Created by Iconzilla.id</text><text x="0" y="52" fill="#000000" font-size="5px" font-weight="bold" font-family="'Helvetica Neue', Helvetica, Arial-Unicode, Arial, Sans-serif">from the Noun Project</text></svg>