<svg xmlns="http://www.w3.org/2000/svg" viewBox="0 0 32 40" x="0px" y="0px"><g><path d="M30,16A14,14,0,1,1,16,2V4A12,12,0,1,0,28,16a12.158,12.158,0,0,0-.243-2.42l1.959-.4A14.146,14.146,0,0,1,30,16Z"/><path d="M28.9,10.55l-1.841.78a12.006,12.006,0,0,0-1.107-2.039l1.658-1.119A14.061,14.061,0,0,1,28.9,10.55Zm-6.19-4.5a12.065,12.065,0,0,1,1.776,1.466L25.9,6.1a13.989,13.989,0,0,0-2.071-1.709ZM21.449,3.1a13.958,13.958,0,0,0-2.628-.815l-.4,1.959a11.969,11.969,0,0,1,2.253.7ZM17,8H15v8a1,1,0,0,0,1,1h8V15H17Z"/><rect width="32" height="32" fill="none"/></g><text x="0" y="47" fill="#000000" font-size="5px" font-weight="bold" font-family="'Helvetica Neue', Helvetica, Arial-Unicode, Arial, Sans-serif">Created by Iconzilla.id</text><text x="0" y="52" fill="#000000" font-size="5px" font-weight="bold" font-family="'Helvetica Neue', Helvetica, Arial-Unicode, Arial, Sans-serif">from the Noun Project</text></svg>